HIERARCHY
ROOT Hips
{
	OFFSET 3.262180 1.786664 96.876900
	CHANNELS 6 Xposition Yposition Zposition Zrotation Xrotation Yrotation
	JOINT Spine
	{
		OFFSET 0.000000 2.282068 11.002602
		CHANNELS 6 Xposition Yposition Zposition Zrotation Xrotation Yrotation
		JOINT Spine1
		{
			OFFSET 0.000000 -0.000002 10.969299
			CHANNELS 6 Xposition Yposition Zposition Zrotation Xrotation Yrotation
			JOINT Spine2
			{
				OFFSET 0.000000 -0.000001 10.969299
				CHANNELS 6 Xposition Yposition Zposition Zrotation Xrotation Yrotation
				JOINT Spine3
				{
					OFFSET 0.000000 -0.000002 10.969299
					CHANNELS 6 Xposition Yposition Zposition Zrotation Xrotation Yrotation
					JOINT Neck
					{
						OFFSET 0.000000 -1.410342 14.103394
						CHANNELS 6 Xposition Yposition Zposition Zrotation Xrotation Yrotation
						JOINT Neck1
						{
							OFFSET 0.000000 -0.000001 4.782913
							CHANNELS 6 Xposition Yposition Zposition Zrotation Xrotation Yrotation
							JOINT Head
							{
								OFFSET 0.000000 -0.000001 4.782913
								CHANNELS 6 Xposition Yposition Zposition Zrotation Xrotation Yrotation
								End Site
								{
									OFFSET 0.000000 -0.000002 9.728073
								}
							}
						}
					}
					JOINT RightShoulder
					{
						OFFSET 0.000000 -5.270922 10.073898
						CHANNELS 6 Xposition Yposition Zposition Zrotation Xrotation Yrotation
						JOINT RightArm
						{
							OFFSET 0.000000 -0.000003 20.722305
							CHANNELS 6 Xposition Yposition Zposition Zrotation Xrotation Yrotation
							JOINT RightForeArm
							{
								OFFSET 0.000000 -0.000005 28.841995
								CHANNELS 6 Xposition Yposition Zposition Zrotation Xrotation Yrotation
								JOINT RightHand
								{
									OFFSET 0.000000 -0.000004 25.042404
									CHANNELS 6 Xposition Yposition Zposition Zrotation Xrotation Yrotation
									JOINT RightHandThumb1
									{
										OFFSET -3.044720 -2.696441 3.626236
										CHANNELS 6 Xposition Yposition Zposition Zrotation Xrotation Yrotation
										End Site
										{
											OFFSET 0.000000 0.000000 0.100006
										}
									}
									JOINT RightHandMiddle1
									{
										OFFSET 0.000000 0.061985 9.669983
										CHANNELS 6 Xposition Yposition Zposition Zrotation Xrotation Yrotation
										End Site
										{
											OFFSET 0.000000 0.000000 0.100006
										}
									}
								}
							}
						}
					}
					JOINT LeftShoulder
					{
						OFFSET 0.000000 -5.270922 10.073898
						CHANNELS 6 Xposition Yposition Zposition Zrotation Xrotation Yrotation
						JOINT LeftArm
						{
							OFFSET 0.000000 -0.000003 20.722305
							CHANNELS 6 Xposition Yposition Zposition Zrotation Xrotation Yrotation
							JOINT LeftForeArm
							{
								OFFSET 0.000000 -0.000005 28.841995
								CHANNELS 6 Xposition Yposition Zposition Zrotation Xrotation Yrotation
								JOINT LeftHand
								{
									OFFSET 0.000000 -0.000004 25.042404
									CHANNELS 6 Xposition Yposition Zposition Zrotation Xrotation Yrotation
									JOINT LeftHandThumb1
									{
										OFFSET 3.044720 -2.696441 3.626236
										CHANNELS 6 Xposition Yposition Zposition Zrotation Xrotation Yrotation
										End Site
										{
											OFFSET 0.000000 0.000000 0.100006
										}
									}
									JOINT LeftHandMiddle1
									{
										OFFSET 0.000000 0.061985 9.669983
										CHANNELS 6 Xposition Yposition Zposition Zrotation Xrotation Yrotation
										End Site
										{
											OFFSET 0.000000 0.000000 0.100006
										}
									}
								}
							}
						}
					}
				}
			}
		}
	}
	JOINT RightUpLeg
	{
		OFFSET -10.300800 0.000000 0.000000
		CHANNELS 6 Xposition Yposition Zposition Zrotation Xrotation Yrotation
		JOINT RightLeg
		{
			OFFSET 0.000000 0.000007 -44.955601
			CHANNELS 6 Xposition Yposition Zposition Zrotation Xrotation Yrotation
			JOINT RightFoot
			{
				OFFSET 0.000000 0.000007 -44.349701
				CHANNELS 6 Xposition Yposition Zposition Zrotation Xrotation Yrotation
				JOINT RightForeFoot
				{
					OFFSET 0.000000 0.000001 -4.355741
					CHANNELS 6 Xposition Yposition Zposition Zrotation Xrotation Yrotation
					JOINT RightToeBase
					{
						OFFSET 0.000000 -17.058399 -0.000003
						CHANNELS 6 Xposition Yposition Zposition Zrotation Xrotation Yrotation
						End Site
						{
							OFFSET 0.000000 -6.416070 -0.000001
						}
					}
				}
			}
		}
	}
	JOINT LeftUpLeg
	{
		OFFSET 10.300800 0.000000 0.000000
		CHANNELS 6 Xposition Yposition Zposition Zrotation Xrotation Yrotation
		JOINT LeftLeg
		{
			OFFSET 0.000000 0.000007 -44.955601
			CHANNELS 6 Xposition Yposition Zposition Zrotation Xrotation Yrotation
			JOINT LeftFoot
			{
				OFFSET 0.000000 0.000007 -44.349701
				CHANNELS 6 Xposition Yposition Zposition Zrotation Xrotation Yrotation
				JOINT LeftForeFoot
				{
					OFFSET 0.000000 0.000001 -4.355741
					CHANNELS 6 Xposition Yposition Zposition Zrotation Xrotation Yrotation
					JOINT LeftToeBase
					{
						OFFSET 0.000000 -17.058399 -0.000003
						CHANNELS 6 Xposition Yposition Zposition Zrotation Xrotation Yrotation
						End Site
						{
							OFFSET 0.000000 -7.802588 -0.000001
						}
					}
				}
			}
		}
	}
}
MOTION
Frames: 4
Frame Time: 0.041667
3.262180 1.786662 96.876907 -1.437268 -12.651896 -2.830398 -0.000001 2.282073 11.002603 -0.425772 7.367629 2.259491 0.000000 -0.000001 10.969308 0.124386 5.068299 0.297041 0.000000 -0.000002 10.969287 0.998002 4.668742 0.238667 -0.000000 -0.000002 10.969296 -0.101639 2.244320 -0.246128 0.000000 -1.410345 14.103392 0.057350 -0.610193 1.670437 0.000000 0.000000 4.782910 -4.638000 -0.854706 0.309940 -0.000001 -0.000003 4.782894 -0.327264 -12.573786 0.062374 0.000008 -5.270921 10.073901 -25.035551 0.000015 -78.696019 -0.000000 -0.000003 20.722301 -0.000002 -0.000002 -4.500001 -0.000028 -0.000005 28.842009 -27.711705 26.835581 13.339865 0.000004 0.000002 25.042393 -2.275322 -19.634677 -6.743597 -3.044727 -2.696435 3.626226 0.000004 45.263698 -0.000001 -0.000005 0.061999 9.669983 -0.000000 -0.000000 0.000001 0.000016 -5.270923 10.073903 20.259174 0.000019 88.129733 0.000006 0.000002 20.722305 -32.979886 12.055012 14.615760 -0.000010 0.000003 28.842007 25.325061 21.020054 -9.633917 0.000003 -0.000003 25.042408 0.892774 -9.263012 5.529540 3.044718 -2.696450 3.626226 -0.000001 45.263705 0.000002 -0.000007 0.061986 9.669998 -0.000000 -0.000000 0.000001 -10.300799 0.000001 0.000030 -8.336584 14.221858 12.146582 -0.000001 0.000006 -44.955585 0.000001 6.552035 0.000000 0.000001 0.000007 -44.349701 7.860743 -9.377920 0.101355 -0.000000 0.000002 -4.355741 -0.000000 0.000000 -0.000000 -0.000001 -17.058399 -0.000002 0.000001 -16.997023 0.000000 10.300798 0.000004 -0.000001 6.226877 18.877279 0.298238 0.000000 0.000007 -44.955589 -0.000000 -0.682582 -0.000000 0.000002 0.000006 -44.349697 2.007937 -6.040432 -1.041594 0.000001 0.000001 -4.355741 -0.000001 -0.000000 -0.000000 -0.000000 -17.058403 -0.000002 -0.000000 -8.996644 0.000000 
3.259470 1.766352 96.877502 -1.434216 -12.636326 -2.829539 -0.000001 2.282075 11.002593 -0.426392 7.347872 2.257212 0.000001 -0.000003 10.969292 0.124751 5.063381 0.297112 -0.000000 -0.000001 10.969296 1.003463 4.657922 0.237092 -0.000000 0.000000 10.969307 -0.100585 2.246586 -0.247508 0.000000 -1.410326 14.103395 0.076305 -0.606671 1.694445 0.000000 -0.000002 4.782932 -4.615002 -0.854405 0.298288 0.000001 -0.000002 4.782920 -0.324832 -12.553695 0.065370 0.000008 -5.270905 10.073895 -25.035556 0.000017 -78.696019 -0.000015 -0.000005 20.722307 -0.000002 -0.000002 -9.000000 -0.000031 -0.000013 28.841993 -27.711710 26.835581 13.339862 -0.000002 0.000004 25.042379 -2.282831 -19.617924 -6.771175 -3.044719 -2.696450 3.626226 0.000001 45.263705 -0.000001 -0.000016 0.061980 9.669983 0.000002 0.000000 0.000000 0.000000 -5.270907 10.073892 20.249937 0.000004 88.124453 -0.000001 -0.000000 20.722294 -32.962783 12.017299 14.669028 -0.000001 -0.000002 28.842005 25.307002 21.063014 -9.644603 -0.000005 -0.000003 25.042397 0.887540 -9.260227 5.498950 3.044708 -2.696434 3.626242 -0.000002 45.263705 0.000003 0.000010 0.061983 9.669998 -0.000000 -0.000001 0.000001 -10.300801 0.000003 0.000013 -8.312064 14.212760 12.136638 -0.000001 0.000006 -44.955585 -0.000001 6.573927 0.000001 -0.000003 0.000006 -44.349693 7.827982 -9.382636 0.108243 0.000000 0.000001 -4.355740 0.000000 -0.000000 -0.000000 -0.000001 -17.058399 -0.000003 0.000001 -17.018724 0.000000 10.300800 0.000008 -0.000003 6.188854 18.863828 0.309976 0.000001 0.000007 -44.955601 0.000000 -0.666344 -0.000000 0.000001 0.000007 -44.349701 2.049320 -6.055187 -1.045794 0.000003 0.000001 -4.355740 0.000001 -0.000000 -0.000000 0.000001 -17.058399 -0.000001 0.000002 -8.981916 0.000000 
3.259470 1.747003 96.877602 -1.448021 -12.625876 -2.830385 0.000000 2.282069 11.002590 -0.423792 7.326939 2.248884 0.000000 -0.000002 10.969294 0.125005 5.053978 0.295569 -0.000000 -0.000002 10.969301 1.008521 4.656970 0.232055 0.000000 -0.000008 10.969306 -0.099196 2.240788 -0.240230 -0.000001 -1.410328 14.103386 0.107108 -0.665331 1.716230 -0.000000 -0.000000 4.782913 -4.566536 -0.786026 0.290014 -0.000000 0.000000 4.782910 -0.321561 -12.505279 0.064082 -0.000008 -5.270905 10.073879 -25.035553 0.000013 -78.696026 -0.000005 -0.000005 20.722311 -0.000002 -0.000003 -13.500002 -0.000004 -0.000005 28.841993 -27.711706 26.835581 13.339863 -0.000002 0.000006 25.042379 -2.269046 -19.562271 -6.748812 -3.044701 -2.696450 3.626241 0.000005 45.263705 -0.000002 -0.000009 0.061976 9.669983 -0.000000 0.000001 0.000001 -0.000012 -5.270908 10.073886 20.225280 -0.000004 88.135894 -0.000002 0.000000 20.722296 -32.620847 11.992018 14.649168 0.000016 -0.000003 28.841999 25.094583 21.190068 -9.607934 0.000004 -0.000003 25.042410 0.887028 -9.305409 5.469493 3.044714 -2.696450 3.626241 -0.000002 45.263705 0.000002 -0.000000 0.061986 9.669998 -0.000000 -0.000002 0.000000 -10.300798 -0.000002 0.000013 -8.304131 14.215025 12.133683 0.000001 0.000007 -44.955593 0.000000 6.565475 0.000000 -0.000001 0.000006 -44.349701 7.838875 -9.383427 0.101791 -0.000000 -0.000001 -4.355740 -0.000000 0.000000 0.000000 -0.000001 -17.058401 -0.000003 0.000001 -17.014826 0.000000 10.300799 -0.000002 -0.000003 6.067025 18.857372 0.350628 0.000001 0.000006 -44.955601 0.000000 -0.648042 -0.000000 -0.000000 0.000007 -44.349705 2.181758 -6.065537 -1.052352 -0.000000 0.000001 -4.355740 -0.000001 -0.000000 -0.000000 0.000001 -17.058401 -0.000002 0.000000 -8.982378 -0.000000 
3.260160 1.730411 96.877197 -1.454425 -12.610119 -2.833663 0.000000 2.282075 11.002610 -0.422956 7.306029 2.238671 0.000000 -0.000004 10.969299 0.124943 5.045215 0.294746 0.000000 -0.000001 10.969300 1.003697 4.657071 0.224678 0.000000 -0.000008 10.969282 -0.099757 2.243918 -0.235652 0.000000 -1.410348 14.103401 0.103625 -0.701980 1.705134 0.000000 -0.000003 4.782917 -4.568736 -0.775659 0.310984 -0.000000 0.000002 4.782892 -0.321752 -12.492604 0.067884 0.000008 -5.270925 10.073896 -25.035555 0.000015 -78.696019 0.000009 -0.000003 20.722303 -0.000004 -0.000002 -18.000001 0.000010 0.000003 28.841993 -27.711712 26.835581 13.339863 -0.000002 -0.000008 25.042393 -2.236797 -19.506231 -6.671898 -3.044716 -2.696465 3.626241 -0.000000 45.263705 -0.000004 0.000003 0.061976 9.669983 -0.000001 0.000003 -0.000002 -0.000007 -5.270926 10.073901 20.193504 -0.000012 88.174471 0.000000 -0.000005 20.722322 -32.454020 11.863872 14.784709 -0.000017 -0.000000 28.842001 25.082789 21.295628 -9.647664 -0.000013 -0.000007 25.042402 0.877116 -9.306220 5.408273 3.044735 -2.696435 3.626226 -0.000001 45.263701 0.000001 0.000025 0.061992 9.669968 -0.000000 -0.000001 -0.000000 -10.300797 0.000006 0.000021 -8.289317 14.219138 12.133237 0.000001 0.000006 -44.955589 0.000001 6.550036 0.000001 0.000001 0.000007 -44.349693 7.826739 -9.386083 0.101425 -0.000002 0.000002 -4.355742 0.000000 0.000000 -0.000000 0.000003 -17.058399 -0.000003 0.000001 -17.010321 -0.000000 10.300801 0.000007 0.000022 6.031250 18.849876 0.367157 0.000000 0.000007 -44.955605 -0.000000 -0.643670 -0.000000 0.000000 0.000005 -44.349705 2.220021 -6.068229 -1.052288 0.000000 0.000002 -4.355741 -0.000000 -0.000000 -0.000000 -0.000000 -17.058403 -0.000002 0.000002 -8.983497 -0.000000 
